<?xml version="1.0" encoding="UTF-8" standalone="no"?>
<!-- Created with Inkscape (http://www.inkscape.org/) -->

<svg
   width="3840"
   height="2160"
   viewBox="0 0 1016 571.5"
   version="1.1"
   id="svg135"
   inkscape:version="1.2.2 (b0a8486541, 2022-12-01)"
   sodipodi:docname="megabackground.svg"
   inkscape:export-filename="MegaBackground.png"
   inkscape:export-xdpi="96"
   inkscape:export-ydpi="96"
   xml:space="preserve"
   xmlns:inkscape="http://www.inkscape.org/namespaces/inkscape"
   xmlns:sodipodi="http://sodipodi.sourceforge.net/DTD/sodipodi-0.dtd"
   xmlns="http://www.w3.org/2000/svg"
   xmlns:svg="http://www.w3.org/2000/svg"><sodipodi:namedview
     id="namedview137"
     pagecolor="#ffffff"
     bordercolor="#000000"
     borderopacity="0.25"
     inkscape:showpageshadow="2"
     inkscape:pageopacity="0.0"
     inkscape:pagecheckerboard="0"
     inkscape:deskcolor="#d1d1d1"
     inkscape:document-units="mm"
     showgrid="false"
     inkscape:zoom="0.10001019"
     inkscape:cx="1769.8197"
     inkscape:cy="1809.8156"
     inkscape:window-width="1366"
     inkscape:window-height="701"
     inkscape:window-x="0"
     inkscape:window-y="39"
     inkscape:window-maximized="1"
     inkscape:current-layer="layer1" /><defs
     id="defs132" /><g
     inkscape:label="Layer 1"
     inkscape:groupmode="layer"
     id="layer1"
     style="display:inline"><path
       style="fill:#002b5b;fill-opacity:1;stroke:#000000;stroke-width:2.20888"
       d="m -82.436561,-87.302912 c 0,0 46.263669,754.884342 30.320727,756.533302 -15.942942,1.649 1339.827134,-17.18936 1339.827134,-17.18936 l -135.525,-787.09631 z"
       id="path360" /><path
       style="fill:#2b4865;fill-opacity:1;stroke:none;stroke-width:2.29938"
       d="m -410.73895,314.93961 150.01936,-75.30845 496.51205,-129.06731 c 0,0 326.47027,66.83069 339.31866,70.54346 12.84844,3.71277 614.88658,-11.13847 614.88658,-11.13847 l 38.2027,490.09117 -1273.2706,40.7008 z"
       id="path1699" /><path
       style="fill:#256d85;fill-opacity:1;stroke:none;stroke-width:2.58301"
       d="m -70.094034,326.3778 714.409274,61.03551 454.59106,-91.36166 c 0,0 80.2665,386.95836 63.0293,379.93062 -17.2373,-7.02784 -1351.63293,-18.74083 -1351.63293,-18.74083 z"
       id="path3211" /><path
       style="fill:#8fe3cf;fill-opacity:1;stroke:none;stroke-width:2.80001"
       d="m -40.347366,538.67063 646.785326,-41.28922 250.63726,39.15971 281.41798,-56.44804 -9.2833,158.88039 c 0,0 -1201.75607,29.93741 -1196.013744,9.12669 5.742327,-20.81063 11.857325,-113.60732 11.857325,-113.60732 z"
       id="path4157" /></g><g
     inkscape:groupmode="layer"
     id="layer2"
     inkscape:label="Layer 2" /></svg>
