<?xml version="1.0" encoding="UTF-8" standalone="no"?>
<!-- Created with Inkscape (http://www.inkscape.org/) -->

<svg
   width="3840"
   height="2160"
   viewBox="0 0 1016 571.5"
   version="1.1"
   id="svg135"
   inkscape:version="1.2.2 (b0a8486541, 2022-12-01)"
   sodipodi:docname="megabackground.svg"
   inkscape:export-filename="MegaBackground.png"
   inkscape:export-xdpi="96"
   inkscape:export-ydpi="96"
   xml:space="preserve"
   xmlns:inkscape="http://www.inkscape.org/namespaces/inkscape"
   xmlns:sodipodi="http://sodipodi.sourceforge.net/DTD/sodipodi-0.dtd"
   xmlns="http://www.w3.org/2000/svg"
   xmlns:svg="http://www.w3.org/2000/svg"><sodipodi:namedview
     id="namedview137"
     pagecolor="#ffffff"
     bordercolor="#000000"
     borderopacity="0.25"
     inkscape:showpageshadow="2"
     inkscape:pageopacity="0.0"
     inkscape:pagecheckerboard="0"
     inkscape:deskcolor="#d1d1d1"
     inkscape:document-units="mm"
     showgrid="false"
     inkscape:zoom="0.10901279"
     inkscape:cx="1632.8359"
     inkscape:cy="1238.3868"
     inkscape:window-width="1366"
     inkscape:window-height="701"
     inkscape:window-x="0"
     inkscape:window-y="39"
     inkscape:window-maximized="1"
     inkscape:current-layer="layer1" /><defs
     id="defs132" /><g
     inkscape:label="Layer 1"
     inkscape:groupmode="layer"
     id="layer1"
     style="display:inline"><path
       style="fill:#002b5b;fill-opacity:1;stroke:#000000;stroke-width:2.1403"
       d="m -82.346443,-91.920886 c 0,0 46.259018,708.809766 30.317679,710.358086 -15.94134,1.54835 1339.692464,-16.14022 1339.692464,-16.14022 l -135.5114,-739.05566 z"
       id="path360" /><path
       style="fill:#2b4865;fill-opacity:1;stroke:none;stroke-width:2.19532"
       d="M -410.84924,221.10159 -260.8104,152.46401 228.77073,42.58622 c 0,0 333.50798,53.154108 346.35805,56.538002 12.8501,3.383898 614.96642,-10.151811 614.96642,-10.151811 l 38.2077,446.678629 -379.70641,-41.70172 -461.4386,-7.01683 -420.677212,30.46801 z"
       id="path1699"
       sodipodi:nodetypes="cccscccccc" /><path
       style="fill:#256d85;fill-opacity:1;stroke:none;stroke-width:2.41317"
       d="M -2.0378693,176.99927 644.34187,245.08592 1025.4622,179.81358 c 0,0 153.8066,323.23917 136.5672,317.10602 -5.8769,-2.09079 -161.9378,-37.06481 -368.93497,-39.539 -132.60447,-1.58498 -347.29354,-18.81281 -491.70009,-20.17341 -72.44379,-0.68257 -72.3666,30.3777 -137.34258,29.80791 -196.408125,-1.7223 -353.8307,13.5494 -353.8307,13.5494 z"
       id="path3211"
       sodipodi:nodetypes="cccsssscc" /><path
       style="fill:#8fe3cf;fill-opacity:1;stroke:none;stroke-width:2.35324"
       d="m -40.409589,317.20707 630.634919,-26.61261 266.90413,46.82607 281.45444,-39.86622 -9.2845,112.20868 c 0,0 -218.5004,24.38905 -437.09729,22.31066 -168.55634,-1.60263 -320.76207,-29.92113 -474.53646,-29.28027 -160.613593,0.66937 -286.330381,18.00961 -284.535151,13.4153 5.743048,-14.69743 11.858864,-80.23474 11.858864,-80.23474 z"
       id="path4157"
       sodipodi:nodetypes="cccccssscc" /></g><g
     inkscape:groupmode="layer"
     id="layer2"
     inkscape:label="Layer 2" /></svg>
